<svg width="15" height="13" viewBox="0 0 15 13" fill="none" xmlns="http://www.w3.org/2000/svg">
<path d="M12.6556 8.83522H12.5768L11.7148 6.82465C11.8609 6.88871 12.0185 6.92281 12.178 6.92494C12.2414 6.92494 12.3021 6.89979 12.3469 6.855C12.3917 6.81022 12.4168 6.74949 12.4168 6.68616V4.77588C12.4168 4.71255 12.3917 4.65181 12.3469 4.60703C12.3021 4.56225 12.2414 4.53709 12.178 4.53709C11.9294 4.53844 11.6873 4.6174 11.4857 4.76295C11.2841 4.9085 11.1329 5.11337 11.0534 5.34896C10.9831 5.25086 10.8934 5.16824 10.7899 5.10621C10.6864 5.04419 10.5713 5.00409 10.4516 4.9884C10.2999 4.9688 10.1459 4.97853 9.99792 5.01705H9.79018C9.38663 5.01705 9.20755 4.77827 8.92578 4.38905L8.7849 4.19086C8.92939 4.18348 9.0694 4.13819 9.19083 4.05952C9.28297 3.99264 9.36099 3.90822 9.4204 3.8111C9.47982 3.71399 9.51947 3.60609 9.53707 3.4936C9.61468 3.44889 9.68255 3.38909 9.73668 3.31774C9.79082 3.24638 9.83012 3.1649 9.85226 3.07812C9.86235 3.00967 9.85567 2.93979 9.8328 2.87449C9.80992 2.80919 9.77153 2.75042 9.72093 2.70323C9.62343 2.5363 9.57001 2.34729 9.56572 2.15402C9.62737 2.15033 9.68519 2.1229 9.72704 2.07748C9.7689 2.03207 9.79153 1.9722 9.79018 1.91046C9.79021 1.65737 9.73994 1.4068 9.6423 1.17331C9.54466 0.939815 9.4016 0.72805 9.22142 0.550316C9.04124 0.372583 8.82754 0.232424 8.59274 0.137983C8.35793 0.0435419 8.1067 -0.00329934 7.85363 0.000180604C7.35703 0.0099568 6.88348 0.211589 6.53225 0.562813C6.18103 0.914037 5.9794 1.38758 5.96962 1.88419C5.96516 2.13738 6.01145 2.38889 6.10578 2.62388C6.20011 2.85888 6.34055 3.0726 6.51883 3.25243C6.57166 3.30494 6.62747 3.35437 6.68598 3.40048C5.76427 3.62493 5.27953 4.48934 5.0312 5.23912C4.96053 5.16791 4.87646 5.11142 4.78383 5.07289C4.69121 5.03436 4.59186 5.01457 4.49154 5.01466H1.95565C1.8283 5.01445 1.70295 5.04627 1.59112 5.10719C1.47929 5.16811 1.38458 5.25618 1.3157 5.36329C1.28119 5.41649 1.26922 5.48122 1.28243 5.54324C1.29564 5.60526 1.33295 5.65949 1.38615 5.69401C1.43934 5.72852 1.50407 5.74049 1.56609 5.72728C1.62812 5.71407 1.68235 5.67676 1.71686 5.62356C1.74259 5.58371 1.77797 5.55099 1.81971 5.52845C1.86145 5.50591 1.90821 5.49427 1.95565 5.49462H2.38785V6.21098C2.38785 6.27431 2.41301 6.33504 2.45779 6.37982C2.50257 6.4246 2.5633 6.44976 2.62663 6.44976H3.82056C3.88389 6.44976 3.94462 6.4246 3.9894 6.37982C4.03419 6.33504 4.05934 6.27431 4.05934 6.21098V5.49223H4.49154C4.52886 5.49223 4.56581 5.49958 4.60029 5.51386C4.63476 5.52814 4.66608 5.54907 4.69247 5.57546C4.71886 5.60185 4.73979 5.63317 4.75407 5.66765C4.76835 5.70212 4.7757 5.73907 4.7757 5.77639V7.59832C4.77507 7.67326 4.74485 7.74493 4.69163 7.7977C4.63841 7.85047 4.56649 7.88008 4.49154 7.88008H1.95565C1.88726 7.88197 1.82056 7.85871 1.76819 7.8147C1.71581 7.77068 1.68141 7.70899 1.67149 7.6413H2.14906C2.21239 7.6413 2.27313 7.61614 2.31791 7.57136C2.36269 7.52658 2.38785 7.46584 2.38785 7.40251C2.38785 7.33918 2.36269 7.27845 2.31791 7.23367C2.27313 7.18888 2.21239 7.16373 2.14906 7.16373H1.67149V6.68616H1.91028C1.97361 6.68616 2.03434 6.661 2.07913 6.61622C2.12391 6.57144 2.14906 6.5107 2.14906 6.44737C2.14906 6.38404 2.12391 6.32331 2.07913 6.27853C2.03434 6.23375 1.97361 6.20859 1.91028 6.20859H0.716355C0.653025 6.20859 0.592289 6.23375 0.547508 6.27853C0.502727 6.32331 0.47757 6.38404 0.47757 6.44737C0.47757 6.5107 0.502727 6.57144 0.547508 6.61622C0.592289 6.661 0.653025 6.68616 0.716355 6.68616H1.19392V7.16373H0.238785C0.175455 7.16373 0.114719 7.18888 0.0699385 7.23367C0.0251576 7.27845 0 7.33918 0 7.40251C0 7.46584 0.0251576 7.52658 0.0699385 7.57136C0.114719 7.61614 0.175455 7.6413 0.238785 7.6413H1.19392C1.20489 7.83473 1.28938 8.01666 1.4301 8.14983C1.57082 8.28301 1.75713 8.35735 1.95087 8.35765H3.1448C3.0343 8.466 2.94018 8.58988 2.86542 8.72538C2.54654 9.35072 2.38275 10.0436 2.38785 10.7455C2.38785 10.8088 2.41301 10.8696 2.45779 10.9143C2.50257 10.9591 2.5633 10.9843 2.62663 10.9843H3.3597C3.42081 11.4432 3.6465 11.8643 3.9948 12.1693C4.3431 12.4743 4.79031 12.6424 5.25327 12.6424C5.71623 12.6424 6.16344 12.4743 6.51174 12.1693C6.86003 11.8643 7.08572 11.4432 7.14683 10.9843H10.762C10.808 11.3491 10.9583 11.6929 11.1948 11.9744C11.4314 12.2559 11.7441 12.4632 12.0956 12.5713C12.447 12.6794 12.8222 12.6838 13.1761 12.584C13.53 12.4841 13.8475 12.2843 14.0906 12.0084C14.3337 11.7325 14.492 11.3923 14.5465 11.0287C14.601 10.665 14.5494 10.2934 14.3979 9.95835C14.2464 9.62332 14.0014 9.33913 13.6923 9.13991C13.3833 8.94068 13.0233 8.83489 12.6556 8.83522ZM3.58177 5.9698H2.86542V5.49223H3.58177V5.9698ZM11.9392 5.05526V6.40678C11.7993 6.35756 11.6781 6.26611 11.5924 6.14507C11.5067 6.02402 11.4606 5.87935 11.4606 5.73102C11.4606 5.58269 11.5067 5.43801 11.5924 5.31697C11.6781 5.19593 11.7993 5.10448 11.9392 5.05526ZM10.3824 5.4588C10.476 5.47282 10.5629 5.51545 10.6314 5.58087C10.6998 5.64628 10.7462 5.73126 10.7644 5.82414L10.8265 5.9698C10.494 6.1407 10.1231 6.22295 9.74959 6.20859C9.7167 6.06674 9.73393 5.91788 9.79835 5.78729C9.86277 5.65671 9.97041 5.55245 10.103 5.49223C10.193 5.46303 10.2881 5.45246 10.3824 5.46119V5.4588ZM9.20516 3.12826C9.16541 3.14829 9.13206 3.17902 9.10885 3.21699C9.08565 3.25497 9.07352 3.29867 9.07383 3.34317C9.07206 3.40328 9.05777 3.46236 9.03187 3.51664C9.00596 3.57091 8.96902 3.61918 8.92339 3.65836C8.78728 3.7491 8.53417 3.72761 8.20704 3.59867C8.18958 3.59674 8.17196 3.59674 8.1545 3.59867L8.11869 3.56763V2.65308C8.11869 2.58692 8.13172 2.5214 8.15704 2.46027C8.18236 2.39914 8.21947 2.3436 8.26626 2.29681C8.31304 2.25003 8.36858 2.21292 8.42971 2.1876C8.49084 2.16228 8.55636 2.14924 8.62252 2.14924H9.07383C9.08134 2.45834 9.17839 2.75862 9.3532 3.01365C9.31001 3.05985 9.2601 3.0993 9.20516 3.13065V3.12826ZM6.44719 1.88897C6.45913 1.51848 6.61165 1.16643 6.87376 0.904317C7.13587 0.642206 7.48792 0.489692 7.85841 0.47775H7.8799C8.21864 0.477529 8.5465 0.597337 8.80529 0.815908C9.06408 1.03448 9.23705 1.33767 9.29351 1.67167H8.62252C8.36243 1.67231 8.11317 1.77591 7.92926 1.95982C7.74535 2.14373 7.64175 2.39299 7.64112 2.65308V3.32407C7.30385 3.26709 6.9981 3.09134 6.77912 2.82857C6.56015 2.5658 6.44241 2.23337 6.44719 1.89136V1.88897ZM7.16355 3.82074C7.94437 3.82074 8.23092 4.22906 8.53417 4.65887C8.75385 4.97407 9.01174 5.31792 9.44156 5.4397C9.30635 5.65816 9.24522 5.91441 9.26724 6.17038C8.97087 6.10564 8.69134 5.97955 8.44664 5.80024C8.20194 5.62094 7.9975 5.39238 7.84647 5.12928C7.83346 5.09772 7.81384 5.06931 7.78892 5.04598C7.764 5.02265 7.73437 5.00493 7.70203 4.99402C7.66968 4.98311 7.63537 4.97926 7.60141 4.98273C7.56745 4.98621 7.53463 4.99692 7.50516 5.01415C7.4757 5.03139 7.45027 5.05474 7.43059 5.08263C7.41091 5.11052 7.39744 5.14231 7.39109 5.17585C7.38474 5.20939 7.38565 5.24391 7.39377 5.27706C7.40189 5.31022 7.41702 5.34125 7.43815 5.36806C7.52471 5.51332 7.62378 5.65075 7.73424 5.77878L7.71275 5.7931C7.49016 6.04913 7.33359 6.35573 7.25667 6.68616H5.25327V6.44737C5.26998 6.30171 5.5422 3.82074 7.16355 3.82074ZM5.25327 7.59593V7.16373H7.40233C7.45009 7.16373 8.59626 7.17805 8.59626 8.35765V9.55158H7.64112V9.07401C7.64715 8.9156 7.6204 8.75765 7.56253 8.61007C7.50467 8.46248 7.41694 8.32844 7.30485 8.21635C7.19276 8.10426 7.05872 8.01653 6.91113 7.95866C6.76355 7.9008 6.6056 7.87405 6.44719 7.88008H5.19835C5.23482 7.78979 5.25347 7.6933 5.25327 7.59593ZM5.25327 12.1782C4.91494 12.1779 4.58765 12.0578 4.32935 11.8393C4.07106 11.6208 3.89844 11.3179 3.84205 10.9843H4.33156C4.38655 11.1866 4.50659 11.3652 4.67316 11.4926C4.83974 11.6199 5.04359 11.6889 5.25327 11.6889C5.46295 11.6889 5.6668 11.6199 5.83337 11.4926C5.99995 11.3652 6.11999 11.1866 6.17498 10.9843H6.66449C6.6081 11.3179 6.43547 11.6208 6.17718 11.8393C5.91889 12.0578 5.5916 12.1779 5.25327 12.1782ZM4.84256 10.9843H5.66398C5.62169 11.0555 5.56159 11.1146 5.48958 11.1556C5.41757 11.1966 5.33613 11.2182 5.25327 11.2182C5.1704 11.2182 5.08896 11.1966 5.01695 11.1556C4.94494 11.1146 4.88484 11.0555 4.84256 10.9843ZM2.86542 10.5067C2.89588 9.95711 3.04409 9.42047 3.30001 8.93312C3.39505 8.7564 3.53689 8.60923 3.70999 8.50773C3.88309 8.40623 4.08078 8.35431 4.28141 8.35765H6.44719C6.54262 8.35248 6.63807 8.36747 6.72733 8.40164C6.81658 8.43581 6.89764 8.4884 6.96522 8.55598C7.0328 8.62356 7.08539 8.70461 7.11956 8.79387C7.15373 8.88312 7.16872 8.97857 7.16355 9.07401V9.79036C7.16355 10.0487 7.24733 10.3001 7.40233 10.5067H2.86542ZM8.35747 10.5067C8.20968 10.5063 8.06563 10.4602 7.94507 10.3747C7.82452 10.2892 7.73336 10.1685 7.6841 10.0291H8.83504C8.89738 10.0251 8.95987 10.0342 9.01851 10.0557C9.07715 10.0772 9.13066 10.1107 9.17561 10.1541C9.22056 10.1975 9.25596 10.2498 9.27955 10.3076C9.30314 10.3654 9.3144 10.4276 9.31261 10.49C9.23344 10.5006 9.15369 10.5061 9.07383 10.5067H8.35747ZM9.88808 10.2273C9.85358 10.2664 9.81426 10.3009 9.77108 10.33C9.74486 10.1495 9.66399 9.98131 9.53933 9.84812C9.41468 9.71493 9.25223 9.62311 9.07383 9.585V8.35765C9.09537 7.96804 8.97071 7.58441 8.72427 7.28187C8.47782 6.97933 8.12733 6.77967 7.74141 6.72198C7.80262 6.5078 7.9075 6.30862 8.04944 6.13695C8.05561 6.12859 8.0612 6.11982 8.06615 6.11069C8.4368 6.41133 8.88278 6.60459 9.35559 6.66944L10.029 9.59694C10.0668 9.81743 10.0162 10.0439 9.88808 10.2273ZM10.5065 9.49904L9.84988 6.68616C10.2539 6.68988 10.6532 6.59825 11.0151 6.41872L12.1422 9.04535L11.1011 10.5067H10.2678C10.3726 10.3631 10.4476 10.2 10.4887 10.0269C10.5297 9.85391 10.5357 9.67445 10.5065 9.49904ZM12.6556 10.5067H12.2449C12.2975 10.4157 12.3786 10.3445 12.4757 10.3043C12.5728 10.2641 12.6805 10.257 12.7821 10.2842C12.8836 10.3114 12.9734 10.3714 13.0374 10.4548C13.1014 10.5382 13.136 10.6404 13.136 10.7455C13.136 10.8506 13.1014 10.9528 13.0374 11.0362C12.9734 11.1196 12.8836 11.1796 12.7821 11.2068C12.6805 11.234 12.5728 11.2269 12.4757 11.1867C12.3786 11.1465 12.2975 11.0753 12.2449 10.9843H12.6556C12.7189 10.9843 12.7797 10.9591 12.8244 10.9143C12.8692 10.8696 12.8944 10.8088 12.8944 10.7455C12.8944 10.6822 12.8692 10.6214 12.8244 10.5767C12.7797 10.5319 12.7189 10.5067 12.6556 10.5067ZM11.6861 10.5067L11.7697 10.3897C11.7553 10.4279 11.7433 10.467 11.7339 10.5067H11.6861ZM12.6556 12.1782C12.3173 12.1779 11.99 12.0578 11.7317 11.8393C11.4734 11.6208 11.3008 11.3179 11.2444 10.9843H11.7339C11.7862 11.1857 11.9028 11.3645 12.0661 11.4936C12.2293 11.6226 12.4303 11.6948 12.6383 11.6992C12.8464 11.7036 13.0501 11.6399 13.2187 11.5178C13.3872 11.3957 13.5113 11.2219 13.572 11.0229C13.6327 10.8239 13.6267 10.6104 13.555 10.4151C13.4833 10.2197 13.3497 10.0532 13.1747 9.94068C12.9996 9.82819 12.7926 9.77597 12.5851 9.79193C12.3776 9.8079 12.181 9.8912 12.0252 10.0291L12.5338 9.31279H12.6556C13.0356 9.31279 13.4 9.46374 13.6687 9.73242C13.9374 10.0011 14.0883 10.3655 14.0883 10.7455C14.0883 11.1255 13.9374 11.4899 13.6687 11.7586C13.4 12.0273 13.0356 12.1782 12.6556 12.1782Z" fill="#7D8180"/>
</svg>
