<svg width="22" height="22" viewBox="0 0 22 22" fill="none" xmlns="http://www.w3.org/2000/svg">
<path d="M2 17.3333H3.66667V19.3333C3.6672 19.7752 3.84296 20.1988 4.15541 20.5113C4.46785 20.8237 4.89147 20.9995 5.33333 21H16.6667C17.1085 20.9995 17.5321 20.8237 17.8446 20.5113C18.157 20.1988 18.3328 19.7752 18.3333 19.3333V17.3333H20C20.2652 17.3333 20.5196 17.228 20.7071 17.0404C20.8946 16.8529 21 16.5986 21 16.3333V13C21 12.7348 20.8946 12.4804 20.7071 12.2929C20.5196 12.1054 20.2652 12 20 12H18.3333V10C18.3328 9.55814 18.157 9.13452 17.8446 8.82207C17.5321 8.50963 17.1085 8.33386 16.6667 8.33333V6.66667C16.6667 3.537 14.1297 1 11 1C7.87033 1 5.33333 3.537 5.33333 6.66667V8.33333C4.89147 8.33386 4.46785 8.50963 4.15541 8.82207C3.84296 9.13452 3.6672 9.55814 3.66667 10V12H2C1.73478 12 1.48043 12.1054 1.29289 12.2929C1.10536 12.4804 1 12.7348 1 13L1 16.3333C1 16.5986 1.10536 16.8529 1.29289 17.0404C1.48043 17.228 1.73478 17.3333 2 17.3333ZM17.6667 19.3333C17.6667 19.5986 17.5613 19.8529 17.3738 20.0404C17.1862 20.228 16.9319 20.3333 16.6667 20.3333H5.33333C5.06812 20.3333 4.81376 20.228 4.62623 20.0404C4.43869 19.8529 4.33333 19.5986 4.33333 19.3333V17.3333H17.6667V19.3333ZM6 6.66667C6 3.90533 8.23867 1.66667 11 1.66667C13.7613 1.66667 16 3.90533 16 6.66667V8.33333H14.6667V6.66667C14.6667 4.64167 13.025 3 11 3C8.975 3 7.33333 4.64167 7.33333 6.66667V8.33333H6V6.66667ZM8 8.33333V6.66667C8 5.87102 8.31607 5.10796 8.87868 4.54535C9.44129 3.98274 10.2044 3.66667 11 3.66667C11.7956 3.66667 12.5587 3.98274 13.1213 4.54535C13.6839 5.10796 14 5.87102 14 6.66667V8.33333H8ZM4.33333 10C4.33333 9.73478 4.43869 9.48043 4.62623 9.29289C4.81376 9.10536 5.06812 9 5.33333 9H16.6667C16.9319 9 17.1862 9.10536 17.3738 9.29289C17.5613 9.48043 17.6667 9.73478 17.6667 10V12H4.33333V10ZM1.66667 13C1.66667 12.9116 1.70179 12.8268 1.7643 12.7643C1.82681 12.7018 1.91159 12.6667 2 12.6667H20C20.0884 12.6667 20.1732 12.7018 20.2357 12.7643C20.2982 12.8268 20.3333 12.9116 20.3333 13V16.3333C20.3333 16.4217 20.2982 16.5065 20.2357 16.569C20.1732 16.6315 20.0884 16.6667 20 16.6667H2C1.91159 16.6667 1.82681 16.6315 1.7643 16.569C1.70179 16.5065 1.66667 16.4217 1.66667 16.3333V13Z" fill="#0065FD" stroke="#0065FD" stroke-width="0.4"/>
<path d="M2.38931 15.5183C2.4136 15.5548 2.44483 15.586 2.48121 15.6104C2.51759 15.6348 2.55842 15.6517 2.60135 15.6603C2.64428 15.6688 2.68848 15.6689 2.73143 15.6604C2.77438 15.6519 2.81522 15.635 2.85164 15.6107L3.33331 15.2893V15.6667C3.33331 15.7551 3.36843 15.8399 3.43094 15.9024C3.49345 15.9649 3.57824 16 3.66664 16C3.75505 16 3.83983 15.9649 3.90235 15.9024C3.96486 15.8399 3.99998 15.7551 3.99998 15.6667V15.2893L4.48164 15.6107C4.5552 15.6597 4.64523 15.6776 4.73193 15.6603C4.81864 15.6429 4.89491 15.5919 4.94398 15.5183C4.99304 15.4448 5.01088 15.3548 4.99356 15.268C4.97625 15.1813 4.9252 15.1051 4.85164 15.056L4.26664 14.6667L4.85064 14.2773C4.88706 14.253 4.91834 14.2218 4.94269 14.1854C4.96704 14.149 4.98399 14.1082 4.99256 14.0653C5.00114 14.0224 5.00117 13.9782 4.99266 13.9352C4.98415 13.8923 4.96727 13.8514 4.94298 13.815C4.91868 13.7786 4.88745 13.7473 4.85107 13.723C4.81469 13.6986 4.77386 13.6817 4.73093 13.6731C4.688 13.6645 4.6438 13.6645 4.60086 13.673C4.55791 13.6815 4.51706 13.6984 4.48064 13.7227L3.99998 14.044V13.6667C3.99998 13.5783 3.96486 13.4935 3.90235 13.431C3.83983 13.3685 3.75505 13.3333 3.66664 13.3333C3.57824 13.3333 3.49345 13.3685 3.43094 13.431C3.36843 13.4935 3.33331 13.5783 3.33331 13.6667V14.044L2.85164 13.7227C2.77809 13.6736 2.68806 13.6558 2.60135 13.6731C2.51465 13.6904 2.43837 13.7415 2.38931 13.815C2.34024 13.8886 2.32241 13.9786 2.33972 14.0653C2.35704 14.152 2.40809 14.2283 2.48164 14.2773L3.06664 14.6667L2.48164 15.056C2.44522 15.0803 2.41394 15.1115 2.38958 15.1479C2.36523 15.1843 2.34828 15.2251 2.33971 15.268C2.33113 15.311 2.3311 15.3552 2.33961 15.3981C2.34812 15.4411 2.36501 15.4819 2.38931 15.5183ZM6.05598 15.5183C6.08027 15.5548 6.1115 15.586 6.14788 15.6104C6.18426 15.6348 6.22508 15.6517 6.26802 15.6603C6.31095 15.6688 6.35515 15.6689 6.3981 15.6604C6.44104 15.6519 6.48189 15.635 6.51831 15.6107L6.99998 15.2893V15.6667C6.99998 15.7551 7.0351 15.8399 7.09761 15.9024C7.16012 15.9649 7.2449 16 7.33331 16C7.42172 16 7.5065 15.9649 7.56901 15.9024C7.63152 15.8399 7.66664 15.7551 7.66664 15.6667V15.2893L8.14831 15.6107C8.22186 15.6597 8.31189 15.6776 8.3986 15.6603C8.4853 15.6429 8.56158 15.5919 8.61064 15.5183C8.65971 15.4448 8.67754 15.3548 8.66023 15.268C8.64291 15.1813 8.59186 15.1051 8.51831 15.056L7.93331 14.6667L8.51731 14.2773C8.55373 14.253 8.58501 14.2218 8.60936 14.1854C8.63371 14.149 8.65065 14.1082 8.65923 14.0653C8.6678 14.0224 8.66784 13.9782 8.65933 13.9352C8.65082 13.8923 8.63394 13.8514 8.60964 13.815C8.58535 13.7786 8.55412 13.7473 8.51774 13.723C8.48135 13.6986 8.44053 13.6817 8.3976 13.6731C8.35467 13.6645 8.31047 13.6645 8.26752 13.673C8.22458 13.6815 8.18373 13.6984 8.14731 13.7227L7.66664 14.044V13.6667C7.66664 13.5783 7.63152 13.4935 7.56901 13.431C7.5065 13.3685 7.42172 13.3333 7.33331 13.3333C7.2449 13.3333 7.16012 13.3685 7.09761 13.431C7.0351 13.4935 6.99998 13.5783 6.99998 13.6667V14.044L6.51831 13.7227C6.44476 13.6736 6.35472 13.6558 6.26802 13.6731C6.18132 13.6904 6.10504 13.7415 6.05598 13.815C6.00691 13.8886 5.98907 13.9786 6.00639 14.0653C6.02371 14.152 6.07476 14.2283 6.14831 14.2773L6.73331 14.6667L6.14931 15.056C6.11281 15.0802 6.08143 15.1114 6.05698 15.1477C6.03253 15.1841 6.01549 15.2249 6.00682 15.2678C5.99815 15.3108 5.99803 15.355 6.00646 15.398C6.0149 15.441 6.03172 15.4819 6.05598 15.5183ZM13.3893 15.5183C13.4136 15.5548 13.4448 15.586 13.4812 15.6104C13.5176 15.6348 13.5584 15.6517 13.6014 15.6603C13.6443 15.6688 13.6885 15.6689 13.7314 15.6604C13.7744 15.6519 13.8152 15.635 13.8516 15.6107L14.3333 15.2893V15.6667C14.3333 15.7551 14.3684 15.8399 14.4309 15.9024C14.4935 15.9649 14.5782 16 14.6666 16C14.755 16 14.8398 15.9649 14.9023 15.9024C14.9649 15.8399 15 15.7551 15 15.6667V15.2893L15.4816 15.6107C15.5552 15.6597 15.6452 15.6776 15.7319 15.6603C15.8186 15.6429 15.8949 15.5919 15.944 15.5183C15.993 15.4448 16.0109 15.3548 15.9936 15.268C15.9762 15.1813 15.9252 15.1051 15.8516 15.056L15.2666 14.6667L15.8506 14.2773C15.8871 14.253 15.9183 14.2218 15.9427 14.1854C15.967 14.149 15.984 14.1082 15.9926 14.0653C16.0011 14.0224 16.0012 13.9782 15.9927 13.9352C15.9842 13.8923 15.9673 13.8514 15.943 13.815C15.9187 13.7786 15.8875 13.7473 15.8511 13.723C15.8147 13.6986 15.7739 13.6817 15.7309 13.6731C15.688 13.6645 15.6438 13.6645 15.6009 13.673C15.5579 13.6815 15.5171 13.6984 15.4806 13.7227L15 14.044V13.6667C15 13.5783 14.9649 13.4935 14.9023 13.431C14.8398 13.3685 14.755 13.3333 14.6666 13.3333C14.5782 13.3333 14.4935 13.3685 14.4309 13.431C14.3684 13.4935 14.3333 13.5783 14.3333 13.6667V14.044L13.8516 13.7227C13.7781 13.6736 13.6881 13.6558 13.6014 13.6731C13.5146 13.6904 13.4384 13.7415 13.3893 13.815C13.3402 13.8886 13.3224 13.9786 13.3397 14.0653C13.357 14.152 13.4081 14.2283 13.4816 14.2773L14.0666 14.6667L13.4826 15.056C13.4461 15.0802 13.4148 15.1114 13.3903 15.1477C13.3659 15.1841 13.3488 15.2249 13.3402 15.2678C13.3315 15.3108 13.3314 15.355 13.3398 15.398C13.3482 15.441 13.3651 15.4819 13.3893 15.5183ZM9.72264 15.5183C9.74693 15.5548 9.77816 15.586 9.81454 15.6104C9.85093 15.6348 9.89175 15.6517 9.93468 15.6603C9.97762 15.6688 10.0218 15.6689 10.0648 15.6604C10.1077 15.6519 10.1486 15.635 10.185 15.6107L10.6666 15.2893V15.6667C10.6666 15.7551 10.7018 15.8399 10.7643 15.9024C10.8268 15.9649 10.9116 16 11 16C11.0884 16 11.1732 15.9649 11.2357 15.9024C11.2982 15.8399 11.3333 15.7551 11.3333 15.6667V15.2893L11.815 15.6107C11.8885 15.6597 11.9786 15.6776 12.0653 15.6603C12.152 15.6429 12.2282 15.5919 12.2773 15.5183C12.3264 15.4448 12.3442 15.3548 12.3269 15.268C12.3096 15.1813 12.2585 15.1051 12.185 15.056L11.6 14.6667L12.184 14.2773C12.2204 14.253 12.2517 14.2218 12.276 14.1854C12.3004 14.149 12.3173 14.1082 12.3259 14.0653C12.3345 14.0224 12.3345 13.9782 12.326 13.9352C12.3175 13.8923 12.3006 13.8514 12.2763 13.815C12.252 13.7786 12.2208 13.7473 12.1844 13.723C12.148 13.6986 12.1072 13.6817 12.0643 13.6731C12.0213 13.6645 11.9771 13.6645 11.9342 13.673C11.8912 13.6815 11.8504 13.6984 11.814 13.7227L11.3333 14.044V13.6667C11.3333 13.5783 11.2982 13.4935 11.2357 13.431C11.1732 13.3685 11.0884 13.3333 11 13.3333C10.9116 13.3333 10.8268 13.3685 10.7643 13.431C10.7018 13.4935 10.6666 13.5783 10.6666 13.6667V14.044L10.185 13.7227C10.1114 13.6736 10.0214 13.6558 9.93469 13.6731C9.84798 13.6904 9.77171 13.7415 9.72264 13.815C9.67358 13.8886 9.65574 13.9786 9.67306 14.0653C9.69037 14.152 9.74142 14.2283 9.81498 14.2773L10.4 14.6667L9.81598 15.056C9.77947 15.0802 9.7481 15.1114 9.72365 15.1477C9.6992 15.1841 9.68215 15.2249 9.67348 15.2678C9.66482 15.3108 9.6647 15.355 9.67313 15.398C9.68157 15.441 9.69839 15.4819 9.72264 15.5183ZM6.33331 9.66667H5.33331C5.2449 9.66667 5.16012 9.70179 5.09761 9.7643C5.0351 9.82681 4.99998 9.9116 4.99998 10V11C4.99998 11.0884 5.0351 11.1732 5.09761 11.2357C5.16012 11.2982 5.2449 11.3333 5.33331 11.3333C5.42172 11.3333 5.5065 11.2982 5.56901 11.2357C5.63152 11.1732 5.66664 11.0884 5.66664 11V10.3333H6.33331C6.42172 10.3333 6.5065 10.2982 6.56901 10.2357C6.63152 10.1732 6.66664 10.0884 6.66664 10C6.66664 9.9116 6.63152 9.82681 6.56901 9.7643C6.5065 9.70179 6.42172 9.66667 6.33331 9.66667ZM17.3333 16H19.3333C19.4217 16 19.5065 15.9649 19.569 15.9024C19.6315 15.8399 19.6666 15.7551 19.6666 15.6667C19.6666 15.5783 19.6315 15.4935 19.569 15.431C19.5065 15.3685 19.4217 15.3333 19.3333 15.3333H17.3333C17.2449 15.3333 17.1601 15.3685 17.0976 15.431C17.0351 15.4935 17 15.5783 17 15.6667C17 15.7551 17.0351 15.8399 17.0976 15.9024C17.1601 15.9649 17.2449 16 17.3333 16Z" fill="#0065FD" stroke="#0065FD" stroke-width="0.4"/>
</svg>
