<svg width="20" height="20" viewBox="0 0 20 20" fill="none" xmlns="http://www.w3.org/2000/svg">
<path d="M4.78076 6.47578H14.346C14.7558 6.47578 15.0882 6.14336 15.0882 5.7336C15.0882 5.32383 14.7558 4.99141 14.346 4.99141H4.78076C4.371 4.99141 4.03857 5.32383 4.03857 5.7336C4.03857 6.14336 4.371 6.47578 4.78076 6.47578ZM11.1999 10.3602C11.1999 9.95039 10.8675 9.61797 10.4577 9.61797H4.78076C4.371 9.61797 4.03857 9.95039 4.03857 10.3602C4.03857 10.7699 4.371 11.1023 4.78076 11.1023H10.4577C10.8675 11.1023 11.1999 10.7699 11.1999 10.3602Z" fill="#0065FD"/>
<path d="M19.009 12.6449C19.0887 11.7727 19.1422 10.7562 19.1434 9.57148C19.141 7.34219 18.9539 5.70977 18.7543 4.51016C18.4051 2.53359 16.6098 0.738281 14.6332 0.389063C13.4336 0.189453 11.8012 0.00234375 9.57148 0C7.34219 0.00234375 5.70937 0.189453 4.50977 0.389063C2.53359 0.738281 0.738281 2.53359 0.389063 4.51016C0.189453 5.70977 0.00273438 7.34219 0 9.57148C0.00273438 11.8008 0.189453 13.4336 0.389063 14.6332C0.738281 16.6098 2.53359 18.4051 4.51016 18.7543C5.70977 18.9539 7.34219 19.1406 9.57187 19.1434C10.7562 19.1422 11.7727 19.0887 12.6445 19.009C13.4195 19.6289 14.4023 20 15.4719 20C17.9727 20 20.0004 17.9727 20.0004 15.4719C20.0004 14.4023 19.6293 13.4195 19.0094 12.6449H19.009ZM9.57187 17.659C7.81328 17.657 6.23984 17.5367 4.76211 17.2914C4.10547 17.1738 3.44023 16.8055 2.88906 16.2543C2.33789 15.7031 1.96992 15.0383 1.85195 14.3813C1.60664 12.9051 1.48672 11.3316 1.48438 9.57148C1.48633 7.81211 1.60664 6.23867 1.85195 4.76172C1.96953 4.10508 2.33789 3.44023 2.88906 2.88906C3.44023 2.33789 4.10508 1.96992 4.76211 1.85195C6.23906 1.60664 7.8125 1.48672 9.57187 1.48438C11.3305 1.48633 12.9039 1.60664 14.3816 1.85195C15.0383 1.96953 15.7031 2.33789 16.2547 2.88906C16.8059 3.44023 17.1738 4.10508 17.2918 4.76211C17.5371 6.23984 17.657 7.81289 17.6594 9.57187C17.6586 10.232 17.6406 10.8652 17.6063 11.4777C16.9703 11.1371 16.2437 10.9441 15.4719 10.9441C12.9711 10.9441 10.9434 12.9715 10.9434 15.4723C10.9434 16.2441 11.1367 16.9703 11.477 17.6063C10.8645 17.6406 10.2312 17.6586 9.57148 17.659H9.57187ZM15.4719 18.5156C13.7934 18.5156 12.4277 17.1504 12.4277 15.4719C12.4277 13.7934 13.7934 12.4281 15.4719 12.4281C17.1504 12.4281 18.516 13.7934 18.516 15.4719C18.516 17.1504 17.1504 18.5156 15.4719 18.5156Z" fill="#0065FD"/>
<path d="M15.8702 16.3375C15.7757 16.3219 15.6472 16.307 15.4718 16.307C15.2964 16.307 15.1679 16.3219 15.0733 16.3375C14.9179 16.3648 14.7765 16.5063 14.7487 16.6621C14.7331 16.7566 14.7183 16.8852 14.7183 17.0606C14.7183 17.2359 14.7331 17.3645 14.7487 17.459C14.7761 17.6145 14.9175 17.7559 15.0733 17.7836C15.1679 17.7992 15.2964 17.8141 15.4718 17.8141C15.6472 17.8141 15.7757 17.7992 15.8702 17.7836C16.0257 17.7563 16.1671 17.6148 16.1948 17.459C16.2104 17.3645 16.2253 17.2359 16.2253 17.0606C16.2253 16.8852 16.2104 16.7566 16.1948 16.6621C16.1675 16.5066 16.0261 16.3652 15.8702 16.3375ZM15.4714 15.8449C15.8812 15.8449 16.2136 15.5125 16.2136 15.1027V13.8645C16.2136 13.4547 15.8812 13.1223 15.4714 13.1223C15.0616 13.1223 14.7292 13.4547 14.7292 13.8645V15.1027C14.7292 15.5125 15.0616 15.8449 15.4714 15.8449Z" fill="#0065FD"/>
</svg>
