<svg width="12" height="12" viewBox="0 0 12 12" fill="none" xmlns="http://www.w3.org/2000/svg">
<path d="M7.125 2.25H2.625C2.418 2.25 2.25 2.418 2.25 2.625C2.25 2.832 2.418 3 2.625 3H7.125C7.332 3 7.5 2.832 7.5 2.625C7.5 2.418 7.332 2.25 7.125 2.25ZM5.625 3.75H2.625C2.418 3.75 2.25 3.918 2.25 4.125C2.25 4.332 2.418 4.5 2.625 4.5H5.625C5.832 4.5 6 4.332 6 4.125C6 3.918 5.832 3.75 5.625 3.75Z" fill="#7D8180"/>
<path d="M8.25 0H1.5C0.67275 0 0 0.67275 0 1.5V9C0 9.1455 0.084 9.27825 0.216 9.33975C0.265834 9.36284 0.320077 9.37487 0.375 9.375C0.46125 9.375 0.54675 9.345 0.615 9.288L2.76075 7.5H8.25C9.07725 7.5 9.75 6.82725 9.75 6V1.5C9.75 0.67275 9.07725 0 8.25 0ZM9 6C9 6.41325 8.664 6.75 8.25 6.75H2.625C2.53725 6.75 2.4525 6.78075 2.385 6.837L0.75 8.19975V1.5C0.75 1.08675 1.086 0.75 1.5 0.75H8.25C8.664 0.75 9 1.08675 9 1.5V6Z" fill="#7D8180"/>
<path d="M10.5 3C10.293 3 10.125 3.168 10.125 3.375C10.125 3.582 10.293 3.75 10.5 3.75C10.914 3.75 11.25 4.08675 11.25 4.5V10.8442L9.984 9.83175C9.91741 9.77896 9.83497 9.75016 9.75 9.75H4.5C4.086 9.75 3.75 9.41325 3.75 9V8.625C3.75 8.418 3.582 8.25 3.375 8.25C3.168 8.25 3 8.418 3 8.625V9C3 9.82725 3.67275 10.5 4.5 10.5H9.618L11.3903 11.9182C11.4571 11.9711 11.5398 11.9999 11.625 12C11.6797 12 11.7353 11.988 11.7878 11.9633C11.8513 11.9325 11.9049 11.8844 11.9425 11.8246C11.98 11.7648 11.9999 11.6956 12 11.625V4.5C12 3.67275 11.3273 3 10.5 3Z" fill="#7D8180"/>
</svg>
