<svg width="23" height="24" viewBox="0 0 23 24" fill="none" xmlns="http://www.w3.org/2000/svg">
<path d="M22.6544 8.30661H12.0823C11.8558 8.30661 11.7048 8.45764 11.7048 8.68419V11.2139L10.7608 10.9874L9.74139 9.96794C10.8741 8.91073 10.9496 6.68305 10.9496 6.04117C12.3466 6.04117 13.3283 5.6636 13.7059 4.98397C13.8569 4.68191 13.9702 4.19106 13.5549 3.54919C13.1396 2.94507 12.6109 2.64301 11.8936 2.64301H10.5343C10.421 1.96338 9.96794 0.528603 8.19334 0.113272C7.81577 0.0377573 7.28717 0 7.17389 0C3.24713 0 2.64301 1.88787 2.64301 3.02059V4.90845C2.64301 5.17275 2.75629 5.47481 2.98283 5.70136C2.79404 5.9279 2.64301 6.30547 2.64301 6.79632C2.64301 7.74025 3.28489 8.15558 3.85125 8.26886C4.04003 8.83522 4.30434 9.25055 4.56864 9.59036L3.17162 10.9874C2.86956 11.3272 3.24713 11.667 3.24713 11.667L1.62357 13.2906C1.47254 13.4794 0 14.9897 0 16.2357C0 16.3112 -3.65708e-08 16.3489 0.0377573 16.3867L1.92562 20.1624C1.96338 20.2757 2.07665 20.3134 2.15217 20.3512C2.18993 20.3512 2.52974 20.4645 3.02059 20.4645C3.02059 20.5022 2.98283 22.6166 2.98283 22.6166C2.98283 22.8432 3.13386 22.9942 3.3604 22.9942C3.58695 22.9942 3.73798 22.8432 3.73798 22.6166V21.5594C4.30434 22.2391 5.21051 22.9942 6.38099 22.9942C7.55147 22.9942 9.70364 22.2391 11.5915 21.5594C11.9313 21.4462 12.2334 21.3329 12.5354 21.2196C12.6109 21.1819 12.6865 21.1819 12.7997 21.1441V22.6544C12.7997 22.8809 12.9508 23.032 13.1773 23.032C13.4039 23.032 13.5549 22.8809 13.5549 22.6544V20.9553C14.2345 20.8043 14.8764 20.7288 15.4427 20.7665H18.0858C18.7276 20.7665 19.5961 20.54 19.8604 19.8604C19.9359 19.6716 19.9736 19.4828 19.9736 19.2562H22.6166C22.8432 19.2562 22.9942 19.1052 22.9942 18.8787V8.68419C23.032 8.45764 22.8809 8.30661 22.6544 8.30661ZM18.5011 9.06176V11.1007L17.5194 10.6098C17.4816 10.5721 17.4439 10.5721 17.3684 10.5721C17.2929 10.5721 17.2551 10.5721 17.2173 10.6098L16.2357 11.1007V9.06176H18.5011ZM7.47595 11.1384C7.43819 11.0629 7.24941 10.9496 7.24941 10.9496C7.7025 10.9496 8.08007 10.8741 8.45764 10.7608L8.30661 11.2139L7.92904 12.1956C7.92904 12.1956 7.51371 11.1384 7.47595 11.1384ZM9.32606 10.6098L10.119 11.4027L9.74139 12.1201L9.09952 11.2517L9.32606 10.6098ZM10.0057 3.39816C9.66588 3.66246 9.36382 4.00228 9.13727 4.30434C8.4954 5.24827 7.92904 5.28603 7.92904 5.28603H5.9279C6.07893 5.135 6.22996 4.94621 6.34323 4.75742C6.79632 4.07779 7.62698 3.39816 8.30661 3.39816H10.0057ZM12.913 4.00228C13.1018 4.26658 13.1396 4.49312 13.0263 4.64415C12.8753 4.94621 12.2334 5.28603 10.9496 5.28603H10.9119C10.8364 4.60639 10.7231 4.11555 10.6476 3.85125C11.0629 3.58695 11.4782 3.39816 11.8936 3.39816C12.3089 3.39816 12.6487 3.58695 12.913 4.00228ZM3.39816 3.02059C3.39816 1.66132 4.49312 1.09496 5.73912 0.868419C5.09724 1.54805 4.90845 2.41647 4.90845 3.02059C4.90845 3.24713 5.05948 3.39816 5.28603 3.39816C5.47481 3.39816 5.6636 3.24713 5.6636 3.02059C5.6636 2.79404 5.73911 0.981691 7.58922 0.792904C9.21279 0.943933 9.66588 2.07665 9.77915 2.64301H8.30661C7.28717 2.64301 6.26772 3.47367 5.73912 4.30434C5.09724 5.24827 4.53088 5.28603 4.53088 5.28603H3.77573C3.47367 5.28603 3.39816 5.09724 3.39816 4.90845V3.02059ZM4.15331 7.55147C4.04003 7.55147 3.39816 7.51371 3.39816 6.79632C3.39816 6.11669 3.70022 6.04117 3.77573 6.04117H7.92904C8.04231 6.04117 8.91073 6.00342 9.74139 4.75742C9.81691 4.64415 9.89242 4.53088 10.0057 4.41761C10.0812 4.75742 10.1945 5.32378 10.1945 6.07893C10.1945 6.11669 10.3455 8.19334 9.25055 9.40158C8.7597 9.93018 8.04231 10.1945 7.17389 10.1945C7.13614 10.1945 5.17275 10.1567 4.53088 7.81577C4.45537 7.66474 4.30434 7.55147 4.15331 7.55147ZM4.94621 10.3078L6.60753 11.4027L5.58809 12.6865L3.92676 11.3272L4.94621 10.3078ZM0.755147 16.1601C0.830661 15.3672 1.77459 14.2345 2.15217 13.8569L3.81349 12.1956L5.3993 13.5171C5.47481 13.5926 5.55033 13.5926 5.62584 13.5926H5.6636C5.77687 13.5926 5.85239 13.5171 5.9279 13.4416L7.02286 12.0446L7.55147 13.3283C7.62698 13.4794 7.74025 13.5549 7.89128 13.5549C8.04231 13.5549 8.19334 13.4794 8.2311 13.3283L8.72194 12.0823L9.43933 13.064C9.51485 13.1773 9.62812 13.2151 9.77915 13.2151C9.89242 13.2151 10.0057 13.1396 10.0812 13.0263L10.6853 11.7803L11.6293 12.0068V18.0102C11.0629 18.199 10.3833 18.4256 9.66588 18.6521C9.09952 18.8409 8.53316 19.0297 8.00455 19.2185C7.36268 19.445 6.60753 19.1807 6.26772 18.5766L4.79518 16.0469C4.68191 15.8581 4.45537 15.8203 4.26658 15.9336C4.07779 16.0469 4.04003 16.2734 4.15331 16.4622L5.21051 18.199C4.60639 19.9736 2.98283 19.8226 2.49198 19.7093L0.755147 16.1601ZM19.1807 19.5583C19.0675 19.8604 18.5389 20.0114 18.1235 20.0114H15.5183C14.2723 19.9359 12.9885 20.3134 12.3466 20.54C12.0446 20.6533 11.7048 20.7665 11.4027 20.8798C9.62812 21.4839 7.47595 22.2768 6.41875 22.2768C5.09724 22.2768 4.15331 20.9176 3.85125 20.4267C4.49312 20.2757 5.21051 19.9359 5.73912 19.0297C6.15445 19.6716 6.87184 20.0491 7.62698 20.0491C7.85353 20.0491 8.08007 20.0114 8.30661 19.9359C8.79746 19.7848 9.36382 19.5961 9.96794 19.3695C11.6293 18.8032 13.6682 18.1235 14.1968 18.1235H16.8398C16.953 18.1235 17.1796 18.199 17.2173 18.5011H16.2357C16.0091 18.5011 15.8581 18.6521 15.8581 18.8787C15.8581 19.1052 16.0091 19.2562 16.2357 19.2562C16.2357 19.2562 19.1052 19.294 19.2562 19.294C19.2562 19.3695 19.2185 19.4828 19.1807 19.5583ZM22.2768 18.5011H17.9725C17.9347 17.6704 17.2929 17.3684 16.8398 17.3684H14.1968C13.8569 17.3684 13.2906 17.5194 12.4599 17.7459V9.06176H15.4805V11.7048C15.4805 11.818 15.556 11.9691 15.6693 12.0446C15.7826 12.1201 15.9336 12.1201 16.0469 12.0446L17.4061 11.365L18.7654 12.0446C18.7654 12.0823 18.8032 12.0823 18.8787 12.0823C18.9542 12.0823 19.0297 12.0823 19.0675 12.0446C19.1807 11.9691 19.2562 11.8558 19.2562 11.7048V9.06176H22.2768V18.5011Z" fill="white"/>
<path d="M15.4804 15.8581H13.9701C13.7435 15.8581 13.5925 16.0091 13.5925 16.2356C13.5925 16.4622 13.7435 16.6132 13.9701 16.6132H15.4804C15.7069 16.6132 15.8579 16.4622 15.8579 16.2356C15.8579 16.0091 15.7069 15.8581 15.4804 15.8581ZM13.9701 15.4805H14.7252C14.9518 15.4805 15.1028 15.3295 15.1028 15.1029C15.1028 14.8764 14.9518 14.7253 14.7252 14.7253H13.9701C13.7435 14.7253 13.5925 14.8764 13.5925 15.1029C13.5925 15.3295 13.7435 15.4805 13.9701 15.4805Z" fill="white"/>
</svg>
