<svg width="17" height="17" viewBox="0 0 17 17" fill="none" xmlns="http://www.w3.org/2000/svg">
<path d="M5.491 0H1.87567C0.839765 0 0 0.839765 0 1.87567V5.491C0 6.5269 0.839765 7.36667 1.87567 7.36667H5.491C6.5269 7.36667 7.36667 6.5269 7.36667 5.491V1.87567C7.36667 0.839765 6.5269 0 5.491 0Z" fill="black"/>
<path d="M15.1243 0H11.509C10.4731 0 9.6333 0.839765 9.6333 1.87567V5.491C9.6333 6.5269 10.4731 7.36667 11.509 7.36667H15.1243C16.1602 7.36667 17 6.5269 17 5.491V1.87567C17 0.839765 16.1602 0 15.1243 0Z" fill="black"/>
<path d="M5.491 9.6333H1.87567C0.839765 9.6333 0 10.4731 0 11.509V15.1243C0 16.1602 0.839765 17 1.87567 17H5.491C6.5269 17 7.36667 16.1602 7.36667 15.1243V11.509C7.36667 10.4731 6.5269 9.6333 5.491 9.6333Z" fill="black"/>
<path d="M13.3166 17C15.3509 17 17 15.3509 17 13.3166C17 11.2824 15.3509 9.6333 13.3166 9.6333C11.2824 9.6333 9.6333 11.2824 9.6333 13.3166C9.6333 15.3509 11.2824 17 13.3166 17Z" fill="black"/>
</svg>
