<svg width="20" height="23" viewBox="0 0 20 23" fill="none" xmlns="http://www.w3.org/2000/svg">
<path d="M14.3425 17.5913C14.1096 17.5913 13.9207 17.7803 13.9207 18.0131C13.9207 18.246 14.1096 18.435 14.3425 18.435C14.5753 18.435 14.7643 18.246 14.7643 18.0131C14.7643 17.7803 14.5753 17.5913 14.3425 17.5913Z" fill="#0065FD"/>
<path d="M15.3811 16.2274L13.3761 15.5592L12.6563 14.1196C13.3048 13.4596 13.755 12.5863 13.9068 11.6754L13.9966 11.1374H14.7643C15.4621 11.1374 16.0298 10.5696 16.0298 9.87185V7.21427C16.0298 3.72526 13.1913 0.886719 9.70225 0.886719C6.20429 0.886719 3.3747 3.71712 3.3747 7.21427V9.87185C3.3747 10.4218 3.72739 10.8907 4.21837 11.0648V11.5592C4.21837 12.257 4.78608 12.8247 5.48388 12.8247H5.85434C6.03668 13.2218 6.27496 13.5908 6.56193 13.9204C6.62179 13.989 6.68377 14.0557 6.74779 14.1204L6.02839 15.5592L4.02336 16.2274C1.69207 17.0048 0 19.459 0 22.0629C0 22.2959 0.188856 22.4848 0.421837 22.4848H18.9827C19.2156 22.4848 19.4045 22.2959 19.4045 22.0629C19.4045 19.459 17.7125 17.0048 15.3811 16.2274ZM15.1861 9.87185C15.1861 10.1044 14.9969 10.2937 14.7643 10.2937H14.1205C14.2277 9.46309 14.2992 8.57921 14.3279 7.70867C14.3287 7.68412 14.3294 7.66024 14.3302 7.63611H15.1861V9.87185ZM4.64021 10.2937C4.40761 10.2937 4.21837 10.1044 4.21837 9.87185V7.63611H5.07462C5.07601 7.68011 5.07748 7.72432 5.07913 7.76882L5.0793 7.77333V7.77371C5.10883 8.62043 5.17936 9.48135 5.28414 10.2936H4.64021V10.2937ZM5.48388 11.981C5.25128 11.981 5.06204 11.7918 5.06204 11.5592V11.1374H5.40787L5.49763 11.6756C5.5149 11.7781 5.53575 11.88 5.56015 11.981H5.48388ZM5.06276 6.79244H4.2344C4.44806 3.96524 6.80748 1.73039 9.70225 1.73039C12.5842 1.73039 14.954 3.96495 15.1701 6.79244H14.3418C14.3114 4.46276 12.4143 2.57407 10.0798 2.57407H9.32475C6.99035 2.57407 5.09309 4.46276 5.06276 6.79244ZM9.32471 3.41774H10.0798C11.97 3.41774 13.4999 4.96382 13.4988 6.85192C13.4988 6.98467 13.4977 7.10025 13.4955 7.20542L13.4955 7.20955L12.9678 7.13417C11.5344 6.92949 10.181 6.25278 9.15686 5.22864C9.07774 5.14955 8.97045 5.1051 8.85858 5.10509C7.72569 5.10509 6.64123 5.62125 5.92436 6.49327C6.10103 4.77559 7.55312 3.41774 9.32471 3.41774ZM6.4347 11.981C6.22353 11.2785 5.9819 9.21155 5.9285 7.88698L6.49625 7.12995C7.01768 6.43493 7.82892 6.0031 8.69187 5.95353C9.82733 7.03411 11.2962 7.74769 12.8485 7.96932L13.4696 8.05807C13.428 8.93908 13.3432 9.82317 13.2217 10.6363L13.2216 10.6371C13.1829 10.8985 13.1525 11.0667 13.0747 11.5366C12.8513 12.8766 11.8514 14.0883 10.5315 14.4183C9.98707 14.5539 9.41765 14.5539 8.87317 14.4183C8.04903 14.2123 7.29335 13.6421 6.80567 12.8247H7.66562C7.83976 13.3157 8.30863 13.6684 8.85858 13.6684H9.70225C10.4014 13.6684 10.9678 13.1021 10.9678 12.4029C10.9678 11.7051 10.4001 11.1374 9.70225 11.1374H8.85858C8.2964 11.1374 7.83444 11.5005 7.66491 11.981H6.4347ZM8.8231 15.272C9.11217 15.3331 9.4068 15.364 9.70225 15.3642C9.93304 15.3642 10.1639 15.3448 10.3921 15.3074L9.6467 16.0957L8.8231 15.272ZM9.06675 16.7089L7.72877 18.1239C7.36015 17.4182 7.04446 16.6862 6.78432 15.9338L7.28677 14.9289L9.06675 16.7089ZM12.0462 14.786L12.6201 15.9338C12.36 16.6864 12.0442 17.4187 11.6755 18.1245L10.2435 16.6924L12.0462 14.786ZM8.43674 12.4029C8.43674 12.17 8.62564 11.981 8.85858 11.981H9.70225C9.93485 11.981 10.1241 12.1703 10.1241 12.4029C10.1241 12.6358 9.93515 12.8247 9.70225 12.8247H8.85858C8.62598 12.8247 8.43674 12.6355 8.43674 12.4029ZM0.860548 21.6411C1.02772 19.5514 2.41848 17.6519 4.29017 17.0278L6.06585 16.436C6.3916 17.3366 6.79327 18.2079 7.26652 19.0404L7.26888 19.0447L7.26893 19.0448C7.61678 19.656 8.00242 20.2448 8.42358 20.808L8.94252 21.6411H0.860548ZM9.70225 21.2651L9.13016 20.3466C9.12375 20.3363 9.11691 20.3263 9.10965 20.3166C8.76789 19.8605 8.45061 19.3865 8.15917 18.8966L9.66357 17.3057L11.2487 18.8909C10.9564 19.3827 10.638 19.8586 10.2949 20.3165C10.2743 20.3441 10.3036 20.3007 9.70225 21.2651ZM10.462 21.6411L10.9809 20.8081C11.4053 20.2406 11.7937 19.647 12.1436 19.0308C12.1457 19.0271 12.1477 19.0233 12.1498 19.0196L12.1506 19.0182C12.6184 18.1924 13.0159 17.3286 13.3387 16.436L15.1143 17.0278C16.986 17.6519 18.3768 19.5514 18.544 21.6411H10.462Z" fill="#0065FD"/>
<path d="M17.2762 19.9343C16.9943 19.37 16.5813 18.8687 16.082 18.4845C15.8973 18.3424 15.6325 18.377 15.4904 18.5616C15.3484 18.7463 15.3829 19.0111 15.5676 19.1532C15.9664 19.46 16.2962 19.8605 16.5214 20.3113C16.6257 20.5201 16.8792 20.6041 17.0873 20.5001C17.2957 20.396 17.3802 20.1427 17.2762 19.9343Z" fill="#0065FD"/>
</svg>
