<svg width="18" height="18" viewBox="0 0 18 18" fill="none" xmlns="http://www.w3.org/2000/svg">
<path d="M16.3665 0.01125C16.3478 0.00973828 16.332 0 16.3125 0H8.25006C7.00957 0 6.00006 1.00951 6.00006 2.25V2.99995C6.00006 3.41399 6.33598 3.75005 6.75001 3.75005C7.16405 3.75005 7.49997 3.41399 7.49997 2.99995V2.25C7.49997 1.83677 7.83669 1.50005 8.25006 1.50005H11.7442L11.5155 1.57655C10.908 1.7865 10.5001 2.35877 10.5001 2.99995V14.25H8.25006C7.83669 14.25 7.49997 13.9132 7.49997 13.5V12C7.49997 11.5861 7.16405 11.25 6.75001 11.25C6.33598 11.25 6.00006 11.5861 6.00006 12V13.5C6.00006 14.7405 7.00957 15.75 8.25006 15.75H10.5001V16.5C10.5001 17.3272 11.1727 18 12 18C12.1605 18 12.3128 17.9768 12.4777 17.9257L16.9838 16.4235C17.592 16.2135 18 15.6413 18 15V1.50005C18 0.625535 17.2462 -0.0600117 16.3665 0.01125Z" fill="#0065FD"/>
<path d="M8.03018 6.96983L5.03023 3.96988C4.92536 3.8649 4.79169 3.7934 4.64616 3.76443C4.50063 3.73546 4.34978 3.75032 4.2127 3.80714C4.0758 3.86408 3.9588 3.96027 3.87647 4.08358C3.79414 4.2069 3.75015 4.35183 3.75005 4.5001V6.7501H0.749953C0.336059 6.7501 0 7.08616 0 7.50006C0 7.91409 0.336059 8.25015 0.749953 8.25015H3.75005V10.5001C3.75018 10.6484 3.79418 10.7933 3.87651 10.9166C3.95884 11.0399 4.07581 11.1361 4.2127 11.1931C4.34978 11.2499 4.50063 11.2647 4.64615 11.2358C4.79167 11.2068 4.92533 11.1353 5.03023 11.0304L8.03018 8.03028C8.32352 7.73708 8.32352 7.26317 8.03018 6.96983Z" fill="#0065FD"/>
</svg>
