<svg width="18" height="20" viewBox="0 0 18 20" fill="none" xmlns="http://www.w3.org/2000/svg">
<path d="M9 9.92488C8.05065 9.92488 7.12262 9.63384 6.33326 9.08856C5.54391 8.54328 4.92868 7.76825 4.56538 6.86148C4.20208 5.95472 4.10702 4.95693 4.29223 3.99432C4.47744 3.0317 4.9346 2.14748 5.60589 1.45347C6.27718 0.759457 7.13246 0.286831 8.06357 0.0953541C8.99468 -0.0961226 9.95979 0.00215012 10.8369 0.377745C11.714 0.75334 12.4636 1.38939 12.9911 2.20546C13.5185 3.02153 13.8 3.98096 13.8 4.96244C13.7986 6.27811 13.2924 7.53948 12.3926 8.4698C11.4927 9.40012 10.2726 9.92342 9 9.92488ZM9 1.37846C8.31436 1.37846 7.64411 1.58865 7.07402 1.98247C6.50393 2.37628 6.0596 2.93602 5.79722 3.59091C5.53483 4.2458 5.46618 4.96642 5.59994 5.66164C5.73371 6.35686 6.06388 6.99547 6.5487 7.4967C7.03352 7.99793 7.65122 8.33927 8.32369 8.47756C8.99615 8.61584 9.69319 8.54487 10.3266 8.27361C10.9601 8.00234 11.5015 7.54298 11.8824 6.95359C12.2634 6.36421 12.4667 5.67128 12.4667 4.96244C12.4656 4.01224 12.1 3.10128 11.4501 2.42939C10.8002 1.7575 9.91909 1.37955 9 1.37846ZM17.3333 20C17.1565 20 16.987 19.9274 16.8619 19.7981C16.7369 19.6689 16.6667 19.4936 16.6667 19.3108V17.607C16.6653 16.2983 16.1618 15.0436 15.2666 14.1182C14.3715 13.1928 13.1579 12.6722 11.892 12.6708H6.108C4.84211 12.6722 3.62848 13.1928 2.73336 14.1182C1.83824 15.0436 1.33475 16.2983 1.33333 17.607V19.3108C1.33333 19.4936 1.2631 19.6689 1.13807 19.7981C1.01305 19.9274 0.843478 20 0.666667 20C0.489856 20 0.320286 19.9274 0.195262 19.7981C0.0702379 19.6689 0 19.4936 0 19.3108V17.607C0.00194071 15.9329 0.646083 14.3279 1.79114 13.1441C2.93619 11.9603 4.48865 11.2943 6.108 11.2923H11.8913C13.5108 11.2941 15.0634 11.96 16.2086 13.1438C17.3538 14.3276 17.9981 15.9327 18 17.607V19.3108C18 19.4936 17.9298 19.6689 17.8047 19.7981C17.6797 19.9274 17.5101 20 17.3333 20Z" fill="#0065FD"/>
</svg>
