<svg width="18" height="21" viewBox="0 0 18 21" fill="none" xmlns="http://www.w3.org/2000/svg">
<path d="M8.7582 10.0094C11.5225 10.0094 13.7629 7.76899 13.7629 5.00468C13.7629 2.24038 11.5225 0 8.7582 0C5.99389 0 3.75351 2.24038 3.75351 5.00468C3.75351 7.76899 5.99389 10.0094 8.7582 10.0094ZM12.2615 11.2605H11.6085C10.7405 11.6593 9.77477 11.8861 8.7582 11.8861C7.74162 11.8861 6.77978 11.6593 5.90787 11.2605H5.25492C2.35377 11.2605 0 13.6143 0 16.5155V18.142C0 19.1781 0.840631 20.0187 1.87676 20.0187H15.6396C16.6758 20.0187 17.5164 19.1781 17.5164 18.142V16.5155C17.5164 13.6143 15.1626 11.2605 12.2615 11.2605Z" fill="#0065FD"/>
</svg>
