<svg width="15" height="13" viewBox="0 0 15 13" fill="none" xmlns="http://www.w3.org/2000/svg">
<path d="M0.625 6.87475L13.0934 6.87475L8.31906 11.4223C8.25962 11.4789 8.21191 11.5466 8.17865 11.6217C8.1454 11.6967 8.12725 11.7776 8.12525 11.8597C8.12325 11.9417 8.13743 12.0234 8.16698 12.1C8.19654 12.1765 8.24089 12.2466 8.2975 12.306C8.35411 12.3654 8.42188 12.4132 8.49693 12.4464C8.57198 12.4797 8.65284 12.4978 8.73491 12.4998C8.81697 12.5018 8.89862 12.4876 8.97521 12.4581C9.05179 12.4285 9.1218 12.3842 9.18125 12.3276L14.6337 7.13382C14.7502 7.01796 14.8425 6.88018 14.9053 6.72844C14.9682 6.5767 15.0004 6.414 15 6.24975C15 5.916 14.8697 5.60194 14.6228 5.35538L9.18094 0.172253C9.06 0.0569405 8.905 -0.000245627 8.75 -0.000245641C8.62502 -0.000427803 8.50285 0.0368847 8.3993 0.106868C8.29575 0.176852 8.21557 0.276287 8.16913 0.392322C8.12269 0.508355 8.11212 0.635652 8.13879 0.757756C8.16547 0.879858 8.22815 0.991155 8.31875 1.07725L13.1131 5.62475L0.625 5.62475C0.45924 5.62475 0.300268 5.6906 0.183057 5.80781C0.065847 5.92502 -3.92769e-07 6.08399 -4.0726e-07 6.24975C-4.21752e-07 6.41551 0.065847 6.57448 0.183057 6.69169C0.300268 6.8089 0.459239 6.87475 0.625 6.87475Z" fill="white"/>
</svg>
