<svg width="19" height="19" viewBox="0 0 19 19" fill="none" xmlns="http://www.w3.org/2000/svg">
<path fill-rule="evenodd" clip-rule="evenodd" d="M5.54777 0.640058V9.01105C5.54777 9.43509 5.54818 9.72516 5.56088 9.94107C5.57358 10.1656 5.59734 10.2344 5.60308 10.2475C5.66392 10.3846 5.77096 10.4959 5.90552 10.5621C6.04007 10.6283 6.1936 10.6452 6.33931 10.6097C6.35324 10.6064 6.42207 10.5831 6.60766 10.4565C6.7867 10.3344 7.01654 10.1574 7.3525 9.89928L7.40986 9.85504C7.72533 9.61126 7.97196 9.42157 8.24032 9.30481C8.53548 9.17659 8.85386 9.11043 9.17566 9.11043C9.49747 9.11043 9.81585 9.17659 10.111 9.30481C10.379 9.42157 10.6252 9.61126 10.9415 9.85504L10.9988 9.89887C11.3348 10.1578 11.5642 10.3344 11.7433 10.4565C11.9289 10.5831 11.9977 10.6064 12.012 10.6097C12.1577 10.6451 12.3111 10.6282 12.4456 10.562C12.58 10.4958 12.687 10.3845 12.7478 10.2475C12.754 10.2344 12.7773 10.1656 12.7905 9.94148C12.8027 9.72516 12.8027 9.43509 12.8027 9.01105V0.639648H14.0835V9.03113C14.0835 9.43018 14.0835 9.75753 14.0687 10.0152C14.054 10.2692 14.0224 10.5323 13.9179 10.7674C13.7353 11.1784 13.4142 11.5123 13.0107 11.7109C12.6071 11.9094 12.1467 11.9601 11.7097 11.854C11.4597 11.7933 11.2324 11.6577 11.0218 11.5139C10.8087 11.3689 10.5494 11.1694 10.2331 10.9256L10.2175 10.9133C9.81684 10.6052 9.70418 10.5241 9.60052 10.479C9.46639 10.4207 9.3217 10.3907 9.17546 10.3907C9.02921 10.3907 8.88453 10.4207 8.7504 10.479C8.64715 10.5241 8.53407 10.6052 8.1338 10.9133L8.11782 10.9256C7.80153 11.1694 7.54219 11.3689 7.32915 11.5143C7.11897 11.6577 6.89077 11.7933 6.64126 11.854C6.2042 11.9601 5.74374 11.9095 5.34017 11.711C4.93661 11.5124 4.61554 11.1785 4.43297 10.7674C4.3285 10.5323 4.29695 10.2692 4.28261 10.0152C4.26746 9.75712 4.26746 9.43018 4.26746 9.03113V0.639648L5.54777 0.640058Z" fill="#0065FD"/>
<path fill-rule="evenodd" clip-rule="evenodd" d="M9.12648 0H9.22481C11.1951 0 12.7392 -1.221e-08 13.9437 0.161832C15.1769 0.32776 16.15 0.673957 16.9141 1.43764C17.6777 2.20132 18.0235 3.17436 18.1895 4.40756C18.3513 5.61207 18.3513 7.15664 18.3513 9.12648V9.22481C18.3513 11.1947 18.3513 12.7388 18.1895 13.9437C18.0235 15.1769 17.6773 16.15 16.9141 16.9141C16.15 17.6773 15.1769 18.0235 13.9437 18.1891C12.7392 18.3513 11.1951 18.3513 9.22481 18.3513H9.12648C7.15664 18.3513 5.61248 18.3513 4.40756 18.1891C3.17436 18.0235 2.20132 17.6773 1.43764 16.9137C0.674367 16.15 0.32776 15.1765 0.162241 13.9437C-3.66301e-08 12.7392 0 11.1947 0 9.2244V9.12648C0 7.15623 -3.66301e-08 5.61207 0.162241 4.40756C0.32776 3.17436 0.673957 2.20132 1.43764 1.43723C2.20132 0.673138 3.17477 0.32776 4.40797 0.161832C5.61248 -1.221e-08 7.15665 0 9.12689 0H9.12648ZM4.57881 1.43067C3.48737 1.57776 2.82939 1.85676 2.34349 2.34267C1.85717 2.82898 1.57817 3.48696 1.43149 4.57799C1.28236 5.68746 1.28072 7.14558 1.28072 9.17565C1.28072 11.2057 1.28236 12.6634 1.43149 13.7733C1.57817 14.8643 1.85717 15.5223 2.34349 16.0082C2.8298 16.4945 3.48737 16.7735 4.57881 16.9202C5.68828 17.0693 7.1464 17.071 9.17606 17.071C11.2061 17.071 12.6642 17.0693 13.7737 16.9202C14.8647 16.7735 15.5231 16.4945 16.009 16.0082C16.4954 15.5223 16.7744 14.8643 16.921 13.7733C17.0702 12.6634 17.0714 11.2057 17.0714 9.17565C17.0714 7.14558 17.0702 5.68746 16.921 4.57799C16.7744 3.48696 16.4949 2.82898 16.009 2.34267C15.5227 1.85676 14.8647 1.57776 13.7737 1.43067C12.6638 1.28154 11.2057 1.28072 9.17565 1.28072C7.14599 1.28072 5.68787 1.28195 4.5784 1.43108L4.57881 1.43067Z" fill="#0065FD"/>
<path fill-rule="evenodd" clip-rule="evenodd" d="M4.26746 14.2966C4.26746 13.943 4.55425 13.6562 4.90782 13.6562H13.4431C13.6129 13.6562 13.7758 13.7237 13.8959 13.8438C14.016 13.9639 14.0835 14.1268 14.0835 14.2966C14.0835 14.4664 14.016 14.6293 13.8959 14.7494C13.7758 14.8695 13.6129 14.937 13.4431 14.937H4.90782C4.55425 14.937 4.26746 14.6502 4.26746 14.2966Z" fill="#0065FD"/>
</svg>
