<svg width="19" height="15" viewBox="0 0 19 15" fill="none" xmlns="http://www.w3.org/2000/svg">
<path d="M6.04566 0.15918H0.863923C0.386946 0.15918 0.000307154 0.545819 0.000307154 1.0228V6.20453C0.000307154 6.68151 0.386946 7.06814 0.863923 7.06814H6.04566C6.52263 7.06814 6.90927 6.68151 6.90927 6.20453V1.0228C6.90927 0.545819 6.52263 0.15918 6.04566 0.15918ZM5.18204 5.34091H1.72754V1.88641H5.18204V5.34091ZM18.1364 2.75003H9.50016C9.02318 2.75003 8.63654 3.13667 8.63654 3.61364C8.63654 4.09062 9.02318 4.47726 9.50016 4.47726H18.1364C18.6134 4.47726 19 4.09062 19 3.61364C19 3.1367 18.6133 2.75003 18.1364 2.75003ZM18.1364 11.3863H9.50016C9.02318 11.3863 8.63654 11.7729 8.63654 12.2499C8.63654 12.7268 9.02318 13.1135 9.50016 13.1135H18.1364C18.6134 13.1135 19 12.7268 19 12.2499C19 11.7729 18.6133 11.3863 18.1364 11.3863ZM5.44112 9.90861L2.56613 12.7491L1.48488 11.6264C1.15315 11.2834 0.606226 11.2743 0.263279 11.6061C-0.0796691 11.9378 -0.088759 12.4847 0.242967 12.8277L1.93047 14.5817C2.01015 14.663 2.10512 14.7277 2.20991 14.7722C2.3147 14.8166 2.42724 14.8399 2.54107 14.8408H2.55143C2.77787 14.84 2.99497 14.7504 3.15596 14.5912L6.65019 11.1367C7.01169 10.8256 7.05254 10.2802 6.74143 9.91875C6.43031 9.55724 5.88499 9.5164 5.52349 9.82751C5.49427 9.85269 5.46675 9.87978 5.44112 9.90861Z" fill="#0065FD"/>
</svg>
