<svg width="11" height="9" viewBox="0 0 11 9" fill="none" xmlns="http://www.w3.org/2000/svg">
<path d="M3.50012 0.250122H0.500166C0.224021 0.250122 0.000177826 0.473966 0.000177826 0.75011V3.75006C0.000177826 4.02621 0.224021 4.25005 0.500166 4.25005H3.50012C3.77626 4.25005 4.0001 4.02621 4.0001 3.75006V0.75011C4.0001 0.473966 3.77626 0.250122 3.50012 0.250122ZM3.00013 3.25007H1.00015V1.2501H3.00013V3.25007ZM10.5 1.75009H5.50009C5.22395 1.75009 5.0001 1.97393 5.0001 2.25007C5.0001 2.52622 5.22395 2.75006 5.50009 2.75006H10.5C10.7762 2.75006 11 2.52622 11 2.25007C11 1.97395 10.7761 1.75009 10.5 1.75009ZM10.5 6.75001H5.50009C5.22395 6.75001 5.0001 6.97388 5.0001 7.25C5.0001 7.52612 5.22395 7.74999 5.50009 7.74999H10.5C10.7762 7.74999 11 7.52612 11 7.25C11 6.97388 10.7761 6.75001 10.5 6.75001ZM3.15012 5.89453L1.48565 7.53901L0.859667 6.88903C0.667616 6.69048 0.350973 6.68521 0.152424 6.87727C-0.0461242 7.06932 -0.0513868 7.38596 0.140665 7.58451L1.11764 8.59999C1.16377 8.64706 1.21875 8.68453 1.27942 8.71028C1.34009 8.73602 1.40524 8.74951 1.47114 8.74999H1.47714C1.60824 8.74957 1.73393 8.69768 1.82714 8.60549L3.85011 6.60552C4.0594 6.4254 4.08305 6.10969 3.90293 5.9004C3.72281 5.69111 3.4071 5.66746 3.19781 5.84758C3.18089 5.86215 3.16496 5.87784 3.15012 5.89453Z" fill="white"/>
</svg>
