<svg width="15" height="13" viewBox="0 0 15 13" fill="none" xmlns="http://www.w3.org/2000/svg">
<path d="M0.625 6.875L13.0934 6.875L8.31906 11.4225C8.25962 11.4791 8.21191 11.5469 8.17865 11.6219C8.1454 11.697 8.12725 11.7778 8.12525 11.8599C8.12325 11.942 8.13743 12.0236 8.16698 12.1002C8.19654 12.1768 8.24089 12.2468 8.2975 12.3062C8.35411 12.3657 8.42188 12.4134 8.49693 12.4467C8.57198 12.4799 8.65284 12.4981 8.73491 12.5001C8.81697 12.5021 8.89862 12.4879 8.97521 12.4583C9.05179 12.4288 9.1218 12.3844 9.18125 12.3278L14.6337 7.13406C14.7502 7.0182 14.8425 6.88042 14.9053 6.72868C14.9682 6.57694 15.0004 6.41424 15 6.25C15 5.91625 14.8697 5.60219 14.6228 5.35562L9.18094 0.172497C9.06 0.0571847 8.905 -1.48652e-06 8.75 -1.50007e-06C8.62502 -0.000183663 8.50285 0.0371288 8.3993 0.107112C8.29575 0.177096 8.21557 0.276532 8.16913 0.392566C8.12269 0.5086 8.11212 0.635896 8.13879 0.758C8.16547 0.880103 8.22815 0.991399 8.31875 1.0775L13.1131 5.625L0.625 5.625C0.45924 5.625 0.300268 5.69084 0.183057 5.80805C0.065847 5.92526 -3.92769e-07 6.08424 -4.0726e-07 6.25C-4.21752e-07 6.41576 0.065847 6.57473 0.183057 6.69194C0.300268 6.80915 0.459239 6.875 0.625 6.875Z" fill="white"/>
</svg>
